<?xml version="1.0" encoding="utf-8"?>
<svg width="84.589996mm" height="80.925095mm" viewBox="0 0 84.589997 80.925095" version="1.1" id="svg876" xmlns="http://www.w3.org/2000/svg">
  <g id="layer1" transform="translate(-43.883572,-104.59102)">
    <path style="fill-opacity: 0.993355; stroke-width: 1; fill: rgb(255, 255, 255);" d="m 48.964402,104.59104 c -3.38731,0.008 -5.08083,3.56431 -5.08083,10.66756 v 55.76817 c 0,10.824 3.93292,13.64894 11.79825,8.47494 l 26.30279,-17.3023 -11.44685,-8.07858 c -8.668,-6.118 -8.668,-12.23592 0,-18.35392 l 12.35635,-8.7204 -27.21229,-19.54867 c -2.70371,-1.94219 -4.94311,-2.91125 -6.71742,-2.9068 z" id="path6"/>
    <path d="m 73.963572,139.51389 q -8.002,5.647 0,11.294 l 46.507998,32.82601 q 8.002,5.647 8.002,-5.64801 v -65.65 q 0,-11.295 -8.002,-5.648 z" style="fill:#ffffff;fill-opacity:0.99667777;stroke-width:0.99999994" id="path10"/>
    <g aria-label="helpquit" style="font-style:normal;font-weight:normal;font-size:51.36261368px;line-height:1.25;font-family:sans-serif;letter-spacing:0px;word-spacing:0px;fill:#141414;fill-opacity:1;stroke:none;stroke-width:1.28406537" id="text816-6" transform="matrix(0.44984811,0,0,0.44984811,222.35884,182.38649)"/>
  </g>
</svg>